<?xml version="1.0" encoding="utf-8"?>
<!-- Generator: Adobe Illustrator 18.0.0, SVG Export Plug-In . SVG Version: 6.00 Build 0)  -->
<!DOCTYPE svg PUBLIC "-//W3C//DTD SVG 1.1//EN" "http://www.w3.org/Graphics/SVG/1.1/DTD/svg11.dtd">
<svg version="1.1" id="Layer_1" xmlns="http://www.w3.org/2000/svg" xmlns:xlink="http://www.w3.org/1999/xlink" x="0px" y="0px"
	 width="155.8px" height="96.6px" viewBox="0 0 155.8 96.6" enable-background="new 0 0 155.8 96.6" xml:space="preserve">
<path fill="#FFFFFF" d="M111.5,33.8c0,18.6-15.2,33.7-33.8,33.7C58.8,67.5,43.8,52,44,33.3C44.2,15.1,59.2-0.2,78.2,0
	C96.6,0.2,111.5,15.2,111.5,33.8z M45.5,33.7C45.5,51.6,60,65.8,77.4,66C95,66.1,110,51.9,110,33.8C110,16,95.6,1.7,78,1.5
	C60.1,1.4,45.5,15.9,45.5,33.7z"/>
<path fill="#FFFFFF" d="M55.1,89.6c0,0.1,0.1,0.2,0.1,0.3c1,1.1,1.9,2.1,3,3.2c0.6,0.6,1.2,1.1,1.9,1.4c1.1,0.6,2.2,0.8,3.4,0.6
	c0.8-0.2,1.3-0.5,1.5-1.3c0.1-0.4,0.2-0.9,0.2-1.3c0-2.6,0-5.3,0-7.9c0-0.3,0-0.6-0.1-0.9C64.7,82.2,64,82,63,81.8
	c-0.2,0-0.3,0-0.5,0c-0.3,0-0.3,0-0.3-0.4s0-0.4,0.4-0.4c1,0,2,0,3,0c1.8,0,3.7,0,5.5,0c1.4,0,2.7,0.3,3.9,0.8
	c2.2,0.9,3.7,2.6,4.2,5s0,4.6-1.7,6.5c-1,1.1-2.4,1.8-3.9,2.1c-1.2,0.3-2.4,0.4-3.6,0.4c-4.1,0-8.3,0-12.4,0c-0.4,0-0.6-0.1-0.8-0.4
	c-1.5-1.8-2.9-3.7-4.4-5.5c-0.1-0.1-0.2-0.3-0.4-0.4c-0.5-0.2-0.8,0-0.7,0.5c0,1.1-0.1,2.1,0.1,3.2c0.2,1.1,0.6,1.5,1.7,1.7
	c0.2,0,0.5,0.1,0.7,0.1c0.3,0,0.3,0.1,0.3,0.4s-0.1,0.3-0.4,0.3c-2.7,0-5.4,0-8.1,0c0,0,0,0-0.1,0c-0.3,0-0.3-0.1-0.3-0.3
	c0-0.2,0-0.4,0.3-0.4s0.6,0,0.9-0.1c0.8-0.1,1.3-0.6,1.5-1.4c0.1-0.5,0.2-1,0.2-1.5c0-2.5,0-5,0-7.5c0-0.3,0-0.7-0.1-1
	c-0.2-1.3-0.8-1.7-2-1.9c-0.2,0-0.3,0-0.5,0c-0.3,0-0.3-0.2-0.3-0.4c0-0.3,0-0.4,0.3-0.4c0.1,0,0.2,0,0.3,0c2.5,0,4.9,0,7.4,0
	c1.1,0,2.1,0.1,3.1,0.5s1.8,1,2.3,1.9c0.9,1.6,0.5,3.6-1,4.8c-0.7,0.6-1.5,0.9-2.3,1.1C55.3,89.5,55.2,89.5,55.1,89.6z M70.1,82.3
	c-0.6,0-1.1,0-1.5,0s-0.5,0-0.5,0.5c0,3.4,0,6.7,0,10.1c0,0.3,0,0.5,0.1,0.8c0.1,0.6,0.4,0.9,1.1,1c0.6,0.1,1.3,0.1,1.9,0
	c2.3-0.2,3.8-1.5,4.4-3.7c0.4-1.6,0.4-3.1,0.1-4.7c-0.6-2-1.7-3.3-3.7-3.8C71.3,82.3,70.6,82.3,70.1,82.3z M51.3,85.3
	c0,0.9,0,1.7,0,2.6c0,0.4,0,0.4,0.4,0.4c0.6,0,1.2,0,1.7,0c1.2-0.1,2.2-0.8,2.5-1.9c0.2-0.6,0.2-1.3,0.1-1.9
	c-0.2-1.2-1.1-2.1-2.3-2.2c-0.7-0.1-1.4-0.1-2.1-0.1c-0.4,0-0.4,0-0.4,0.4C51.3,83.6,51.3,84.5,51.3,85.3z"/>
<path fill="#FFFFFF" d="M107.4,89.6c0.4,0.4,0.7,0.8,1.1,1.2c0.7,0.8,1.5,1.6,2.3,2.4c0.9,0.8,1.8,1.5,3,1.8c0.4,0.1,0.9,0.1,1.3,0
	c0.7-0.1,1.2-0.6,1.4-1.3c0.1-0.4,0.2-0.9,0.2-1.3c0-2.6,0-5.2,0-7.8c0-0.5-0.1-0.9-0.2-1.4c-0.2-0.7-0.6-1.1-1.3-1.2
	c-0.4-0.1-0.7-0.1-1.1-0.1c-0.2,0-0.3-0.1-0.3-0.3c0-0.5,0-0.5,0.5-0.5c4,0,8.1,0,12.1,0c0.5,0,0.5,0,0.5,0.5
	c0.1,1.1,0.2,2.2,0.3,3.3c0,0.2,0.1,0.4-0.2,0.4c-0.3,0-0.4,0-0.5-0.3s-0.2-0.7-0.3-1c-0.2-0.7-0.7-1.1-1.3-1.2
	c-0.4-0.1-0.9-0.2-1.3-0.2c-1.1,0-2.2,0-3.3,0c-0.4,0-0.4,0-0.4,0.4c0,1.4,0,2.8,0,4.2c0,0.4,0,0.5,0.5,0.5c0.7,0,1.3,0,2-0.2
	c0.8-0.2,1.1-0.5,1.3-1.3c0.1-0.3,0.1-0.6,0.1-0.9c0-0.2,0.1-0.3,0.3-0.3c0.5,0,0.5,0,0.5,0.5c0,1.9,0,3.8,0,5.8
	c0,0.4-0.3,0.6-0.7,0.4c-0.1,0-0.1-0.1-0.1-0.2c0-0.4,0-0.7-0.1-1.1c-0.1-0.6-0.4-1-1-1.1c-0.8-0.2-1.6-0.2-2.5-0.2
	c-0.2,0-0.3,0.1-0.3,0.2c0,1.4-0.1,2.8,0.2,4.2c0.2,0.9,0.7,1.3,1.6,1.4c1.2,0.1,2.5,0.1,3.7-0.1c1-0.1,1.7-0.7,1.9-1.7
	c0.1-0.2,0.1-0.5,0.2-0.7s0.2-0.3,0.4-0.3c0.2,0,0.3,0.1,0.3,0.3c-0.1,1.2-0.2,2.4-0.2,3.6c0,0.2-0.1,0.2-0.3,0.2
	c-0.1,0-0.2,0-0.4,0c-5.8,0-11.5,0-17.3,0c-0.4,0-0.6-0.1-0.9-0.4c-1.4-1.8-2.9-3.6-4.3-5.4c-0.1-0.1-0.2-0.3-0.3-0.3
	c-0.2-0.1-0.4-0.1-0.6,0s-0.1,0.3-0.1,0.5c0,1.1-0.1,2.2,0.1,3.2c0.2,1.1,0.7,1.5,1.8,1.7c0.2,0,0.5,0.1,0.7,0.1s0.3,0.1,0.3,0.3
	c0,0.1,0,0.2,0,0.3c0,0.1-0.1,0.2-0.2,0.2s-0.2,0-0.4,0c-2.6,0-5.2,0-7.8,0c0,0,0,0-0.1,0c-0.5,0-0.5,0-0.5-0.5
	c0-0.2,0.1-0.3,0.3-0.3c0.3,0,0.6,0,0.9-0.1c0.9-0.1,1.4-0.6,1.6-1.5c0.2-0.7,0.2-1.4,0.2-2.1c0-2,0-4,0-6c0-0.7,0-1.4-0.2-2
	c-0.2-0.9-0.6-1.3-1.5-1.5c-0.3-0.1-0.6-0.1-0.9-0.1c-0.2,0-0.3-0.1-0.3-0.3c0-0.5,0-0.5,0.5-0.5c2.6,0,5.1,0,7.7,0
	c1.1,0,2.3,0.2,3.3,0.7c1.1,0.5,1.9,1.2,2.3,2.4c0.5,1.6,0.2,2.9-1,4.1c-0.7,0.7-1.6,1-2.5,1.3c-0.1,0-0.2,0.1-0.3,0.1
	C107.5,89.5,107.5,89.6,107.4,89.6z M105,82.3c-0.3,0-0.7,0-1,0c-0.2,0-0.3,0.1-0.3,0.3c0,0.5,0,1,0,1.5c0,1.2,0,2.5,0,3.7
	c0,0.4,0,0.4,0.4,0.4c0.5,0,1,0,1.5,0c1.4,0,2.3-0.8,2.7-2c0.1-0.4,0.2-0.9,0.1-1.4c-0.1-1.4-0.9-2.3-2.2-2.6
	C105.8,82.3,105.4,82.3,105,82.3z"/>
<path fill="#FFFFFF" d="M10.5,89.9c0.2-0.2,0.2-0.4,0.3-0.5c1.3-4,2.7-8,4-12c0-0.1,0.1-0.2,0.1-0.3c0.2-0.5,0.2-0.5,0.6-0.5
	c0.4,0,0.4,0,0.5,0.5c0.7,2.2,1.4,4.4,2.2,6.6c0.6,1.9,1.2,3.8,1.9,5.7c0.1,0.2,0.1,0.4,0.3,0.5c0.2-0.1,0.2-0.3,0.3-0.4
	c1-2.9,2-5.8,3-8.8c0.2-0.5,0.3-0.9,0.4-1.4c0.2-1-0.2-1.5-1.2-1.8c-0.4-0.1-0.7-0.1-1.1-0.1s-0.6-0.3-0.4-0.7
	c0-0.1,0.1-0.1,0.2-0.2c0.1,0,0.2,0,0.4,0c2.4,0,4.8,0,7.2,0c0.1,0,0.1,0,0.2,0c0.2,0,0.4,0,0.4,0.3c0,0.4,0,0.4-0.4,0.5
	s-0.8,0-1.2,0.1c-0.8,0.2-1.5,0.6-1.9,1.3c-0.4,0.6-0.7,1.3-0.9,2.1c-1.2,3.5-2.3,6.9-3.5,10.4c-0.5,1.6-1.1,3.3-1.6,4.9
	c-0.1,0.2,0,0.4-0.3,0.4s-0.4,0-0.5-0.3c-0.3-0.9-0.6-1.9-0.9-2.8c-1.1-3.4-2.2-6.8-3.3-10.2c-0.1-0.2-0.1-0.4-0.3-0.6
	c-0.2,0.2-0.2,0.4-0.3,0.6c-1.4,4.2-2.8,8.5-4.2,12.7c0,0.1-0.1,0.3-0.1,0.4c-0.1,0.1-0.2,0.2-0.3,0.2s-0.3,0-0.3-0.2
	c0-0.1-0.1-0.2-0.1-0.3C7.6,91.2,6,86.2,4.4,81.3c-0.3-0.8-0.5-1.6-0.9-2.3c-0.6-1-1.5-1.6-2.7-1.6c-0.2,0-0.3,0-0.5,0
	C0.1,77.3,0,77.2,0,77c0-0.4,0-0.5,0.5-0.5c1.5,0,3,0,4.5,0s2.9,0,4.4,0c0.5,0,0.5,0.1,0.5,0.5c0,0.2-0.1,0.3-0.2,0.3
	c-0.2,0-0.4,0.1-0.6,0c-0.3,0-0.6,0.1-0.9,0.1C7.4,77.7,7,78.2,7,79.1c0,0.5,0.1,1,0.3,1.5c0.6,1.9,1.2,3.7,1.8,5.6
	c0.3,1,0.7,2.1,1,3.1C10.3,89.4,10.3,89.7,10.5,89.9z"/>
<path fill="#FFFFFF" d="M85.4,76.5c1.4,0,2.8,0,4.3,0c1.2,0,2.3,0.2,3.4,0.6c0.5,0.2,0.9,0.4,1.3,0.7c3,2,3,6.5,0,8.5
	c-1.1,0.7-2.3,1.1-3.6,1.2c-1,0.1-2.1,0.1-3.1,0.1c-0.2,0-0.3,0-0.5,0c-0.3,0-0.3,0.1-0.3,0.3c0,0.1,0,0.1,0,0.2
	c0,1.2,0,2.4,0.1,3.6c0,0.5,0.1,1.1,0.3,1.6c0.3,0.9,0.8,1.4,1.7,1.6c0.3,0.1,0.7,0.1,1,0.1c0.4,0,0.4,0,0.4,0.4c0,0.1,0,0.2,0,0.3
	c0,0.1-0.1,0.2-0.2,0.2s-0.2,0-0.3,0c-3.1,0-6.1,0-9.2,0c-0.2,0-0.4,0.1-0.5-0.1s-0.1-0.4,0-0.7c0-0.2,0.2-0.1,0.3-0.1
	c0.4,0,0.8,0,1.2-0.1c0.8-0.2,1.4-0.6,1.7-1.5c0.2-0.6,0.3-1.1,0.3-1.7c0.1-1,0.1-2,0.1-3c0-2.6,0-5.1,0-7.7c0-0.6-0.1-1.1-0.2-1.7
	c-0.3-1.3-0.9-1.9-2.3-2c-0.2,0-0.4,0-0.7,0c-0.3,0-0.4-0.1-0.3-0.4c0-0.1,0-0.2,0-0.3c0-0.2,0.1-0.3,0.2-0.3s0.2,0,0.4,0
	C82.3,76.5,83.8,76.5,85.4,76.5L85.4,76.5z M88.6,78.1c-0.4,0-0.8,0-1.2,0c-0.6,0-0.6,0-0.6,0.6c0,1.1,0,2.3,0,3.4s0,2.2,0,3.3
	c0,0.4,0,0.4,0.4,0.4c0.8,0,1.5,0,2.3,0c1.8-0.1,3-1,3.4-2.6c0.3-1,0.2-2-0.1-2.9c-0.4-1.3-1.4-2.1-2.7-2.3
	C89.6,78.1,89.1,78.1,88.6,78.1z"/>
<path fill="#FFFFFF" d="M35.6,96.5c-2.4,0-4.6-0.8-6.4-2.4c-3.5-3.2-3.4-8.2,0.2-11.3c1.5-1.3,3.3-2,5.3-2.2c2.7-0.3,5,0.4,7.1,2.1
	c1.3,1.1,2.3,2.5,2.6,4.2c0.6,2.5-0.1,4.8-1.8,6.7c-1.4,1.6-3.2,2.5-5.3,2.8C36.6,96.4,36.1,96.4,35.6,96.5z M41.2,88.4
	c0-1.2-0.2-2.4-0.7-3.5c-1.2-2.6-3.7-3.5-6.1-3c-1.6,0.3-2.8,1.3-3.5,2.8c-1.2,2.5-1.2,5-0.1,7.5c0.8,1.7,2.1,2.7,4,2.9
	c2.5,0.3,4.7-0.7,5.7-3C41,90.9,41.2,89.7,41.2,88.4z"/>
<path fill="#FFFFFF" d="M146.3,95c-0.3,0.3-0.5,0.7-0.6,1.1c-0.1,0.3-0.4,0.5-0.8,0.4c-0.1,0-0.1-0.1-0.2-0.2c0-0.1,0-0.2,0-0.4
	c0-1.7,0-3.4,0-5.1c0-0.2-0.1-0.4,0.1-0.5c0.2-0.1,0.4-0.1,0.7,0c0.1,0,0.1,0.2,0.2,0.3c0.1,0.5,0.2,0.9,0.4,1.3
	c0.9,2.1,2.9,3.3,5.1,3c1.1-0.1,1.9-0.8,2.1-1.8c0.1-0.6-0.1-1.1-0.5-1.6s-0.9-0.8-1.4-1.1c-0.8-0.5-1.7-0.8-2.5-1.2
	c-0.4-0.2-0.9-0.4-1.3-0.6c-0.8-0.4-1.5-0.9-2-1.6c-1.6-2-1-4.6,1.2-5.8c1.9-1,3.9-0.9,5.8,0.2c0.5,0.3,0.6,0.3,0.8-0.3
	c0-0.1,0.1-0.2,0.1-0.3c0-0.2,0.2-0.3,0.4-0.3c0.5,0,0.5,0,0.5,0.5c0,1.4,0,2.9,0,4.3c0,0.2,0.1,0.4-0.3,0.5c-0.5,0-0.6,0-0.7-0.4
	c-0.1-0.7-0.4-1.4-0.8-2c-1-1.4-2.6-1.7-3.9-1.4c-0.3,0.1-0.6,0.2-0.9,0.4c-0.8,0.6-0.9,1.7-0.3,2.4c0.3,0.4,0.8,0.7,1.3,0.9
	c0.8,0.4,1.5,0.8,2.3,1.1c0.5,0.3,1.1,0.5,1.6,0.8s1,0.6,1.5,1c2.3,2.1,1.7,4.9,0.1,6.4c-1.2,1.1-2.7,1.5-4.3,1.4
	c-1.2,0-2.3-0.5-3.3-1.2C146.6,95.2,146.5,95.1,146.3,95z"/>
<path fill="#FFFFFF" d="M131,93.4c0-0.8,0-1.7,0-2.5c0-0.5,0-0.5,0.3-0.5c0.5,0,0.5,0,0.6,0.4c0.2,0.8,0.5,1.6,1,2.3
	c1.3,1.8,3.5,2.2,5,1.8c1.1-0.3,1.8-1.1,1.7-2.2c0-0.6-0.3-1-0.7-1.4c-0.5-0.5-1-0.8-1.6-1.1c-1-0.5-2.1-1-3.1-1.5
	c-0.8-0.4-1.6-0.9-2.2-1.6c-0.8-1-1.2-2.2-0.9-3.5c0.2-0.9,0.7-1.6,1.4-2.1c1-0.8,2.2-1.1,3.5-1c1.1,0,2.2,0.3,3.1,1
	c0.2,0.1,0.3,0.1,0.4-0.1c0.1-0.2,0.2-0.5,0.3-0.7c0.1-0.3,0.3-0.3,0.7-0.3c0.3,0,0.2,0.2,0.2,0.4c0,1.5,0,3,0,4.5
	c0,0.2,0,0.4-0.3,0.4c-0.5,0-0.5,0-0.6-0.3c-0.1-0.6-0.3-1.2-0.6-1.7c-0.9-1.6-2.7-2-4.1-1.7c-0.3,0.1-0.5,0.2-0.7,0.3
	c-1,0.6-1.2,1.8-0.3,2.7c0.4,0.4,1,0.7,1.5,1c1.2,0.6,2.3,1.1,3.5,1.7c0.5,0.3,1,0.6,1.5,1c2.3,2,1.8,4.8,0.1,6.4
	c-1.2,1.1-2.7,1.5-4.3,1.5c-1.3-0.1-2.4-0.5-3.4-1.3c-0.4-0.2-0.4-0.2-0.6,0.1c-0.2,0.3-0.3,0.6-0.4,0.9c-0.1,0.3-0.6,0.4-0.8,0.2
	c-0.1-0.1-0.1-0.3-0.1-0.4C131,95.2,131,94.3,131,93.4z"/>
<path fill="#FFFFFF" d="M92.1,51.1c-3.5-10.3-6.9-20.6-10.4-30.9c0.6-0.1,1.2-0.1,1.8-0.1c0.6,0,1.1-0.1,1.7-0.2
	c0.5-0.1,0.9-0.5,0.9-1.1c0.1-0.8-0.5-1.4-1.3-1.3c-1.1,0.1-2.3,0.2-3.4,0.2c-2.1,0.1-4.2,0.2-6.4,0.1c-1.8-0.1-3.6-0.2-5.4-0.3
	c-0.9-0.1-1.6,0.7-1.3,1.6c0.1,0.4,0.4,0.7,0.8,0.8c0.4,0.1,0.8,0.1,1.3,0.2s1.1,0.1,1.6,0.1c0.3,0,0.4,0.1,0.5,0.4
	c0.6,1.8,1.3,3.5,1.9,5.3c0.8,2.1,1.5,4.1,2.3,6.2c0.1,0.3,0.1,0.6,0,1c-2,5.9-4,11.9-6,17.8c-0.1,0.2-0.1,0.3-0.2,0.5
	c-0.3-0.8-0.5-1.5-0.7-2.2c-3.2-9.5-6.4-18.9-9.5-28.4C60,20,60,20.2,60.7,20.1c0.8-0.1,1.7-0.1,2.5-0.2c0.9-0.1,1.4-0.8,1.2-1.5
	c-0.2-0.6-0.6-1-1.3-0.9c-1.9,0.2-3.9,0.3-5.8,0.3c-1.1,0-2.1,0-3.2,0c-0.1,0-0.3,0-0.4-0.1c9.6-15,31-17.1,43.4-5.5
	c-0.2,0-0.4,0-0.6,0.1c-2.5,0.2-4,2.2-4.4,4.1c-0.2,1.2-0.1,2.4,0.4,3.5c0.3,0.9,0.8,1.7,1.2,2.5c0.6,1,1.2,1.9,1.7,3
	c1.2,2.3,1.8,4.7,1.8,7.3c-0.1,1.7-0.4,3.3-0.8,5c-0.2,0.9-0.5,1.8-0.8,2.6c-0.9,2.4-1.5,4.9-2.3,7.3c-0.4,1.2-0.7,2.3-1,3.5
	C92.2,51.1,92.2,51.1,92.1,51.1z"/>
<path fill="#FFFFFF" d="M78.3,36.5c3,8.2,6,16.4,9,24.6c-0.6,0.3-1.2,0.4-1.9,0.6c-3,0.8-6.1,1.2-9.3,1c-2-0.1-4-0.4-5.9-1
	c-0.1,0-0.2,0-0.2-0.1c-0.4-0.1-0.4-0.1-0.3-0.5c0.2-0.6,0.4-1.3,0.7-1.9c2.6-7.4,5.1-14.9,7.7-22.3C78.1,36.8,78.2,36.6,78.3,36.5
	C78.2,36.5,78.3,36.5,78.3,36.5z"/>
<path fill="#FFFFFF" d="M51.3,22c4.6,12.6,9.2,25.1,13.7,37.7C51,53,45,35.9,51.3,22z"/>
<path fill="#FFFFFF" d="M103.2,20.1c6.7,11.6,4,29.9-10.8,38.5c-0.1-0.2,0-0.3,0.1-0.5c2.2-6.4,4.4-12.7,6.6-19.1c1-2.8,2-5.7,3-8.5
	c0.9-2.7,1.3-5.5,1.3-8.4C103.3,21.5,103.3,20.8,103.2,20.1z"/>
</svg>
